<svg xmlns="http://www.w3.org/2000/svg" viewBox="0 0 383.51 320.63"><defs><style>.cls-1{fill:#fff;}</style></defs><title>der_1</title><g id="Capa_2" data-name="Capa 2"><g id="Capa_1-2" data-name="Capa 1"><path class="cls-1" d="M219.92,320.63c19.82-.07,33.68-6.54,45.41-18.34q46.68-47,93.62-93.67c1.88-1.89,3.81-3.73,5.77-5.53,25.46-23.35,24.75-62.24-.31-86C338,92,312.61,65.72,286.78,40c-8-8-15.91-16.14-24.07-24a57.25,57.25,0,0,0-89,70.37c1.89,3.27,3.44,4.34,7.39,2.92C232.18,70.81,286,111.08,281.82,166.88c-2.7,35.74-32.43,65.51-68,68.77a75.61,75.61,0,0,1-32.78-4.21c-3.58-1.27-5.32-.66-7.11,2.56-10.6,19.13-11.31,38.59-.64,57.63S201.17,320,219.92,320.63Z"/><path class="cls-1" d="M144.55,204.31c-18.33-29.65-18.28-58.53,0-87.89H132c-29.33,0-58.66-.11-88,0A44,44,0,0,0,0,160.74c.11,24,19.84,43.47,44.28,43.52q47.49.11,95,.05Z"/><path class="cls-1" d="M190.15,168a18,18,0,0,0,16,10.07h.39A18,18,0,0,0,222.14,168h49.22a65.64,65.64,0,0,1-130.46,0Z"/><path class="cls-1" d="M206.13,143.15h0a17.92,17.92,0,0,0-15.52,9H141a65.63,65.63,0,0,1,130.18,0H221.65A17.9,17.9,0,0,0,206.13,143.15Z"/><path class="cls-1" d="M205.91,150.86a9.7,9.7,0,0,0-9.77,9.29c-.08,5.15,4.7,9.73,10,9.61,5.11-.12,9.59-4.65,9.5-9.61A9.73,9.73,0,0,0,205.91,150.86Z"/></g></g></svg>