<svg xmlns="http://www.w3.org/2000/svg" viewBox="0 0 383.51 320.63"><defs><style>.cls-1{fill:#fff;}</style></defs><title>izq_1</title><g id="Capa_2" data-name="Capa 2"><g id="Capa_1-2" data-name="Capa 1"><path class="cls-1" d="M163.59,320.63c-19.82-.07-33.67-6.54-45.41-18.34q-46.68-47-93.62-93.67c-1.88-1.89-3.81-3.73-5.77-5.53-25.46-23.35-24.74-62.24.31-86C45.56,92,70.9,65.72,96.73,40c8-8,15.91-16.14,24.07-24a57.25,57.25,0,0,1,89,70.37c-1.89,3.27-3.44,4.34-7.39,2.92-51.08-18.45-104.93,21.82-100.72,77.62,2.7,35.74,32.43,65.51,68,68.77a75.61,75.61,0,0,0,32.78-4.21c3.58-1.27,5.32-.66,7.11,2.56,10.6,19.13,11.31,38.59.64,57.63S182.35,320,163.59,320.63Z"/><path class="cls-1" d="M239,204.31c18.33-29.65,18.28-58.53,0-87.89h12.52c29.33,0,58.66-.11,88,0a44,44,0,0,1,44,44.28c-.11,24-19.84,43.47-44.28,43.52q-47.49.11-95,.05Z"/><path class="cls-1" d="M193.36,168a18,18,0,0,1-16,10.07h-.39A18,18,0,0,1,161.37,168H112.15a65.64,65.64,0,0,0,130.46,0Z"/><path class="cls-1" d="M177.38,143.15h0a17.92,17.92,0,0,1,15.52,9h49.57a65.64,65.64,0,0,0-130.19,0h49.57A17.9,17.9,0,0,1,177.38,143.15Z"/><path class="cls-1" d="M177.6,150.86a9.7,9.7,0,0,1,9.77,9.29c.08,5.15-4.7,9.73-10,9.61-5.11-.12-9.59-4.65-9.5-9.61A9.73,9.73,0,0,1,177.6,150.86Z"/></g></g></svg>